<?xml version="1.0" encoding="UTF-8"?>
<svg width="512" height="512" viewBox="0 0 512 512" xmlns="http://www.w3.org/2000/svg">
  <defs>
    <linearGradient id="g" x1="0" y1="0" x2="1" y2="1">
      <stop offset="0%" stop-color="#0ea5e9"/>
      <stop offset="100%" stop-color="#22c55e"/>
    </linearGradient>
  </defs>
  <rect x="0" y="0" width="512" height="512" rx="96" ry="96" fill="url(#g)"/>
  <g fill="#0b0c10">
    <path d="M256 128c-53 0-96 43-96 96v32h-16c-18 0-32 14-32 32v80c0 18 14 32 32 32h224c18 0 32-14 32-32v-80c0-18-14-32-32-32h-16v-32c0-53-43-96-96-96zm-64 128v-32c0-35 29-64 64-64s64 29 64 64v32H192z"/>
  </g>
</svg>
